<svg xmlns="http://www.w3.org/2000/svg" viewBox="0 0 165.63 47.26">
    <defs>
        <style>
            .cls-1{stroke:#fff;stroke-miterlimit:10;}.cls-2{fill:#fff;}.cls-3{fill:#fff;}</style>
    </defs>
    <g id="Layer_2" data-name="Layer 2">
        <g id="Layer_1-2" data-name="Layer 1">
            <line class="cls-1" y1="42.87" x2="70.87" y2="42.87" />
            <path class="cls-2"
                d="M81.62,45.24h-1V39.11l-2,4.16h-.56l-2-4.16v6.13h-.89V38.13h1.29l1.9,4,1.84-4h1.31Z" />
            <path class="cls-2"
                d="M89.89,42.67H86a2.55,2.55,0,0,0,.15.86,1.59,1.59,0,0,0,1,.94,2.67,2.67,0,0,0,.75.11,2.91,2.91,0,0,0,1.09-.22,2.85,2.85,0,0,0,.79-.42h0v1a9.25,9.25,0,0,1-.93.32,3.64,3.64,0,0,1-1,.13,2.89,2.89,0,0,1-2.08-.72,2.65,2.65,0,0,1-.74-2,3,3,0,0,1,.71-2.09,2.52,2.52,0,0,1,1.88-.77,2.21,2.21,0,0,1,1.67.64,2.48,2.48,0,0,1,.58,1.79ZM89,42a1.62,1.62,0,0,0-.36-1.1,1.36,1.36,0,0,0-1.07-.39,1.55,1.55,0,0,0-1.15.43A1.69,1.69,0,0,0,86,42Z" />
            <path class="cls-2"
                d="M97.53,45.24h-.9V44.7a3.23,3.23,0,0,1-.8.52,2.22,2.22,0,0,1-.92.18,1.79,1.79,0,0,1-1.51-.73,3.25,3.25,0,0,1-.56-2A3.33,3.33,0,0,1,93,41.42a3,3,0,0,1,.52-.91,2.24,2.24,0,0,1,1.66-.74,3.06,3.06,0,0,1,.74.09,3.49,3.49,0,0,1,.7.27V37.82h.9Zm-.9-1.31V40.87a2.78,2.78,0,0,0-.65-.23,3.18,3.18,0,0,0-.62-.06,1.42,1.42,0,0,0-1.18.52,2.4,2.4,0,0,0-.42,1.49A2.61,2.61,0,0,0,94.09,44a1.15,1.15,0,0,0,1,.49,1.84,1.84,0,0,0,.77-.17,2.81,2.81,0,0,0,.73-.43Z" />
            <path class="cls-2" d="M102.22,39h-1v-.92h1Zm0,6.23h-.9V39.91h.9Z" />
            <path class="cls-2"
                d="M110.05,45.24h-.89v-.56a3.53,3.53,0,0,0-.33.23,2.5,2.5,0,0,1-.39.23,2.47,2.47,0,0,1-.52.18,2.66,2.66,0,0,1-.69.08,1.71,1.71,0,0,1-1.22-.48,1.57,1.57,0,0,1-.5-1.22,1.61,1.61,0,0,1,.26-1,1.65,1.65,0,0,1,.74-.59,3.66,3.66,0,0,1,1.17-.29q.69-.08,1.47-.12v-.14a1.08,1.08,0,0,0-.11-.5.74.74,0,0,0-.31-.32,1.25,1.25,0,0,0-.46-.15,5.27,5.27,0,0,0-.56,0,4.17,4.17,0,0,0-.79.1,6.69,6.69,0,0,0-.9.27h0V40a6.38,6.38,0,0,1,.76-.16,5.41,5.41,0,0,1,1-.09,4.75,4.75,0,0,1,1,.1,1.92,1.92,0,0,1,.72.31,1.42,1.42,0,0,1,.46.57,2,2,0,0,1,.16.87Zm-.89-1.31V42.44l-1,.08a4.35,4.35,0,0,0-.88.13,1.49,1.49,0,0,0-.63.34,1,1,0,0,0,0,1.33,1.28,1.28,0,0,0,.85.24,2,2,0,0,0,.86-.19A4.16,4.16,0,0,0,109.16,43.93Z" />
            <path class="cls-2"
                d="M124.82,45.24h-1l-.69-2H120l-.69,2h-1L121,38.13h1.27Zm-2-2.79L121.57,39l-1.26,3.49Z" />
            <path class="cls-2"
                d="M132.11,44.64a2.77,2.77,0,0,1-.61,2,2.58,2.58,0,0,1-1.9.63,3.82,3.82,0,0,1-.83-.06A5.66,5.66,0,0,1,128,47v-.93H128a6,6,0,0,0,.69.21,3.52,3.52,0,0,0,1,.13,2.19,2.19,0,0,0,.76-.11,1,1,0,0,0,.46-.31,1,1,0,0,0,.23-.44,2.39,2.39,0,0,0,.08-.59v-.49a3.53,3.53,0,0,1-.78.49,2.51,2.51,0,0,1-.94.16,1.87,1.87,0,0,1-1.52-.7,3,3,0,0,1-.56-1.94,3.2,3.2,0,0,1,.19-1.19,2.63,2.63,0,0,1,.53-.86,2.09,2.09,0,0,1,.75-.53,2.26,2.26,0,0,1,.89-.19,2.5,2.5,0,0,1,.77.09,3.31,3.31,0,0,1,.67.29l.05-.24h.84Zm-.9-.87v-2.9a3,3,0,0,0-.66-.23,2.56,2.56,0,0,0-.62-.07,1.44,1.44,0,0,0-1.15.49,2.16,2.16,0,0,0-.43,1.45,2.4,2.4,0,0,0,.32,1.36,1.14,1.14,0,0,0,1,.46,2.13,2.13,0,0,0,.79-.15A2.63,2.63,0,0,0,131.21,43.77Z" />
            <path class="cls-2"
                d="M140.31,42.67h-3.95a2.55,2.55,0,0,0,.15.86,1.74,1.74,0,0,0,.41.6,1.7,1.7,0,0,0,.6.34,2.72,2.72,0,0,0,.75.11,3,3,0,0,0,1.1-.22,2.56,2.56,0,0,0,.78-.42h0v1a7.71,7.71,0,0,1-.92.32,3.76,3.76,0,0,1-1,.13,2.91,2.91,0,0,1-2.08-.72,2.65,2.65,0,0,1-.74-2,3,3,0,0,1,.72-2.09,2.48,2.48,0,0,1,1.87-.77,2.18,2.18,0,0,1,1.67.64,2.52,2.52,0,0,1,.59,1.79Zm-.88-.69a1.57,1.57,0,0,0-.36-1.1,1.35,1.35,0,0,0-1.06-.39,1.56,1.56,0,0,0-1.16.43,1.69,1.69,0,0,0-.49,1.06Z" />
            <path class="cls-2"
                d="M148.09,45.24h-.9v-3a5.32,5.32,0,0,0,0-.69A1.23,1.23,0,0,0,147,41a.71.71,0,0,0-.34-.3,1.34,1.34,0,0,0-.59-.1,1.85,1.85,0,0,0-.77.18,4.61,4.61,0,0,0-.77.46v4h-.9V39.91h.9v.59a4,4,0,0,1,.87-.55,2.28,2.28,0,0,1,.93-.19,1.65,1.65,0,0,1,1.32.52,2.25,2.25,0,0,1,.46,1.5Z" />
            <path class="cls-2"
                d="M155.72,44.91a6.23,6.23,0,0,1-.85.33,2.79,2.79,0,0,1-.86.12,3,3,0,0,1-1.06-.17,2.17,2.17,0,0,1-.83-.51,2.45,2.45,0,0,1-.54-.87,3.64,3.64,0,0,1-.19-1.23,2.82,2.82,0,0,1,.72-2,2.51,2.51,0,0,1,1.9-.75,3.38,3.38,0,0,1,.9.13,4.71,4.71,0,0,1,.81.32v1h-.05a3.08,3.08,0,0,0-.84-.49,2.28,2.28,0,0,0-.86-.18,1.49,1.49,0,0,0-1.2.52,2.21,2.21,0,0,0-.44,1.51,2.19,2.19,0,0,0,.43,1.48,1.51,1.51,0,0,0,1.21.52,2.6,2.6,0,0,0,.56-.07,3,3,0,0,0,.5-.19l.37-.21a1.89,1.89,0,0,0,.27-.2h.05Z" />
            <path class="cls-2" d="M163.45,39.91l-3.12,7.3h-1l1-2.22-2.12-5.09h1l1.64,4,1.66-4Z" />
            <path class="cls-3" d="M46.4,34.76V0h7.88V34.76Z" />
            <path class="cls-3" d="M60.43,34.76V0H68.3V34.76Z" />
            <path class="cls-3"
                d="M82.11,26.87a1.78,1.78,0,0,0,1.69,1.85H96.18V11.58h7.88V34.76H82.49c-5,0-8.25-2.53-8.25-6.41V11.58h7.88Z" />
            <path class="cls-3"
                d="M117.91,34.76H110V18c0-3.83,3.28-6.4,8.25-6.4h14.07v6H119.77a1.77,1.77,0,0,0-1.85,1.69.43.43,0,0,0,0,.16Z" />
            <path class="cls-3"
                d="M165.63,18.87c0,3.83-3.29,6.4-8.25,6.4H144.23v1.64a1.74,1.74,0,0,0,1.85,1.85h9.36a1.73,1.73,0,0,0,1.85-1.85v-.08h7.87v1.56c0,3.87-3.28,6.4-8.25,6.4h-12.3c-5,0-8.25-2.53-8.25-6.4V18c0-3.83,3.28-6.4,8.25-6.4h12.77c5,0,8.25,2.57,8.25,6.4Zm-21.4,1.3H155.9c1.14,0,1.85-.42,1.85-1.26S157,17.6,155.9,17.6h-9.81c-1.1,0-1.85.47-1.85,1.06Z" />
            <path class="cls-3"
                d="M27.59,3.66a5.64,5.64,0,0,0-1.93-2.37A5.94,5.94,0,0,0,22.13.09H19a4.69,4.69,0,0,0-4.11,2.48L.84,29.11A5.55,5.55,0,0,0,0,31.88,2.77,2.77,0,0,0,.85,34a2.93,2.93,0,0,0,2.08.79H5.8a3.39,3.39,0,0,0,3-1.85l12.25-24,6.82,13.35H17.93L14,29.64H31.55l2.62,5.16h9.36Zm-10,24.94a.16.16,0,0,1-.16.16h-.86a.16.16,0,0,1-.16-.16h0v-.76a.16.16,0,0,1,.16-.15h.86a.16.16,0,0,1,.16.15h0Zm.69-4.47v-.75a.16.16,0,0,1,.16-.16h.87a.16.16,0,0,1,.16.16h0v.75a.16.16,0,0,1-.16.16h-.88a.16.16,0,0,1-.15-.16ZM20,28.6a.16.16,0,0,1-.15.16H19a.16.16,0,0,1-.16-.16h0v-.76a.16.16,0,0,1,.16-.15h.85a.16.16,0,0,1,.16.15h0Zm.7-4.47v-.75a.16.16,0,0,1,.16-.16h.86a.16.16,0,0,1,.16.16h0v.75a.16.16,0,0,1-.16.16h-.86a.17.17,0,0,1-.17-.15h0Zm1.7,4.47a.15.15,0,0,1-.15.16h-.87a.16.16,0,0,1-.16-.16h0v-.76a.16.16,0,0,1,.16-.15h.87a.15.15,0,0,1,.15.15h0Zm.7-4.47v-.75a.16.16,0,0,1,.16-.16h.86a.16.16,0,0,1,.16.16h0v.75a.16.16,0,0,1-.16.16h-.86a.16.16,0,0,1-.17-.15h0Zm1.71,4.47a.16.16,0,0,1-.16.16H23.8a.16.16,0,0,1-.16-.16h0v-.76a.16.16,0,0,1,.16-.15h.86a.16.16,0,0,1,.16.15h0Zm.69-4.47v-.75a.16.16,0,0,1,.16-.16h.86a.16.16,0,0,1,.16.16h0v.75a.16.16,0,0,1-.16.16h-.86a.16.16,0,0,1-.17-.15h0Zm1.71,4.47a.16.16,0,0,1-.16.16H26.2A.16.16,0,0,1,26,28.6h0v-.76a.16.16,0,0,1,.16-.15h.86a.16.16,0,0,1,.16.15h0Zm2.4,0a.16.16,0,0,1-.16.16H28.6a.16.16,0,0,1-.16-.16h0v-.76a.16.16,0,0,1,.16-.15h.86a.16.16,0,0,1,.16.15h0Z" />
        </g>
    </g>
</svg>